# xmcd CD database file
#
# Track frame offsets:
#	150
#	19182
#	36827
#	57620
#	72998
#	98541
#	122373
#	144562
#	156581
#	179849
#	200732
#	222769
#
# Disc length: 3320 seconds
#
# Revision: 0
# Processed by: cddbd v1.5.2PL0 Copyright (c) Steve Scherf et al.
# Submitted via: CDex 1.51
#
DISCID=b70cf60c
DTITLE=Bow Thayer - Maintenance For Mood Swings
DYEAR=2006
DGENRE=Country
TTITLE0=Tuck And Roll
TTITLE1=Crow Flies
TTITLE2=Meet You In The Morning
TTITLE3=Fixit Shop
TTITLE4=Sundress
TTITLE5=Waiting To Thaw
TTITLE6=Windshield Crack
TTITLE7=Lori Lynn
TTITLE8=To Live, Freak And Die On Route 89
TTITLE9=Music Mountain
TTITLE10=Edge Of Flight
TTITLE11=Sandman's Island
EXTD=YEAR: 2006
EXTT0=
EXTT1=
EXTT2=
EXTT3=
EXTT4=
EXTT5=
EXTT6=
EXTT7=
EXTT8=
EXTT9=
EXTT10=
EXTT11=
PLAYORDER=
